PathFileType	4	(X/Y/Z)	C:\Documents and Settings\rtobon\Desktop\NewMocap\New\NoT\ActorC_TPose.trc
DataRate	CameraRate	NumFrames	NumMarkers	Units	OrigDataRate	OrigDataStartFrame	OrigNumFrames
120.00	120.00	       4	49	mm	120.00	208	       277
Frame#	Time	Root			LtFtHip			LtBkHip			RtFtHip			RtBkHip			Spine1			Spine2			Spine3			SpineOffsetLow			SpineOffsetHigh			LtCtChest			RtCtChest			LtChest			RtChest			LtShoulder			LtBicep			LtElbow			LtForeArm			LtWrist			LtPinky			LtThumb			LtMiddFing			RtShoulder			RtBicep			RtElbow			RtForeArm			RtWrist			RtPinky			RtThumb			RtMiddFing			LtThigh			LtKnee			LtCalf			LtAnkle			LtHeel			LtBall			LtToe			RtThigh			RtKnee			RtCalf			RtAnkle			RtHeel			RtBall			RtToe			TopHead			LfFtHead			LtBkHead			RtFtHead			RtBkHead			
		X1	Y1	Z1	X2	Y2	Z2	X3	Y3	Z3	X4	Y4	Z4	X5	Y5	Z5	X6	Y6	Z6	X7	Y7	Z7	X8	Y8	Z8	X9	Y9	Z9	X10	Y10	Z10	X11	Y11	Z11	X12	Y12	Z12	X13	Y13	Z13	X14	Y14	Z14	X15	Y15	Z15	X16	Y16	Z16	X17	Y17	Z17	X18	Y18	Z18	X19	Y19	Z19	X20	Y20	Z20	X21	Y21	Z21	X22	Y22	Z22	X23	Y23	Z23	X24	Y24	Z24	X25	Y25	Z25	X26	Y26	Z26	X27	Y27	Z27	X28	Y28	Z28	X29	Y29	Z29	X30	Y30	Z30	X31	Y31	Z31	X32	Y32	Z32	X33	Y33	Z33	X34	Y34	Z34	X35	Y35	Z35	X36	Y36	Z36	X37	Y37	Z37	X38	Y38	Z38	X39	Y39	Z39	X40	Y40	Z40	X41	Y41	Z41	X42	Y42	Z42	X43	Y43	Z43	X44	Y44	Z44	X45	Y45	Z45	X46	Y46	Z46	X47	Y47	Z47	X48	Y48	Z48	X49	Y49	Z49	

208	1.725	30.06443	977.90753	-152.98682	160.98035	936.76111	55.52644	162.39868	971.28119	-118.32224	-111.31557	931.46826	61.37670	-108.73507	951.03772	-129.45201	29.94810	1137.27820	-149.13699	32.33406	1279.36670	-152.64632	40.56396	1407.02002	-119.93446	-54.39482	1044.37903	-138.36255	130.57806	1353.30054	-138.12599	53.54062	1215.07410	112.08973	-5.19326	1285.69214	96.73009	126.40803	1325.58875	78.56880	-73.86714	1331.75598	65.51179	164.60919	1426.58240	-21.53802	359.20633	1381.53235	-15.11980	476.80774	1362.20703	-85.43476	587.35199	1369.00647	2.03728	707.36316	1375.50256	-17.99063	769.95758	1340.41467	-62.45359	735.84216	1353.40369	49.26365	761.86121	1381.12903	-6.19494	-113.21543	1426.79187	-43.81027	-298.52356	1379.04236	0.14902	-408.20413	1372.60535	-109.77459	-533.41052	1385.95276	-1.53415	-656.67181	1412.52783	-43.66336	-719.00269	1372.83728	-87.98624	-679.93237	1374.52356	29.04143	-718.95496	1408.04968	-30.02964	169.50223	681.61383	59.96254	191.76924	487.95535	-17.58787	202.68234	375.48584	-141.08112	202.74982	167.36372	-84.30623	152.00798	46.01033	-172.97502	212.32112	64.36122	4.69744	154.67014	57.73072	99.32303	-129.53519	672.06433	50.92826	-160.85236	512.00659	-26.11069	-190.24425	376.41110	-130.77362	-182.66771	165.59201	-98.76201	-123.00806	47.59255	-170.77957	-206.07062	65.33598	5.57203	-150.54382	65.14893	100.54787	29.38033	1692.00537	-40.26625	87.89892	1627.32043	56.51186	120.97395	1547.58142	-71.84464	-50.05687	1625.21582	34.41938	-37.11994	1545.06213	-103.33002	
209	1.733	30.06443	977.90753	-152.98682	160.92186	936.67389	55.53366	162.49431	971.23132	-118.21083	-111.33021	931.33759	61.15305	-108.74802	951.24255	-129.29964	29.94810	1137.27820	-149.13699	32.32794	1279.63928	-152.85905	40.51337	1407.01733	-119.82744	-54.28468	1044.44897	-138.15189	130.66193	1353.30676	-138.07828	53.54062	1215.07410	112.08973	-5.19326	1285.69214	96.73009	126.40803	1325.58875	78.56880	-73.86714	1331.75598	65.51179	164.60919	1426.58240	-21.53802	359.21567	1381.45129	-15.03140	476.90292	1362.12158	-85.20738	587.43579	1369.02881	2.11313	707.32159	1375.22253	-17.96150	769.98615	1340.36035	-62.44630	735.74261	1353.25000	49.44729	761.86121	1381.12903	-6.19494	-113.21543	1426.79187	-43.81027	-298.55722	1379.00110	0.28048	-408.04227	1372.49707	-109.49674	-533.37054	1385.92749	-1.40939	-656.68762	1412.43542	-43.81232	-719.00269	1372.83728	-87.98624	-679.93237	1374.52356	29.04143	-719.07471	1407.97021	-29.93636	169.41145	681.57281	59.92871	191.73792	488.05692	-17.45010	202.68234	375.48584	-141.08112	202.67712	167.42496	-84.22990	151.68120	45.99718	-173.13222	212.32112	64.36122	4.69744	154.66989	57.64276	99.26334	-129.53519	672.06433	50.92826	-160.84683	511.92429	-26.03178	-190.18025	376.52252	-130.85782	-182.71614	165.65617	-98.79095	-123.00806	47.59255	-170.77957	-206.07062	65.33598	5.57203	-150.49771	65.00893	100.73482	29.23979	1691.99622	-40.19883	87.92075	1627.47668	56.56686	120.97395	1547.58142	-71.84464	-50.12101	1625.28333	34.49866	-37.20225	1545.02612	-103.19620	
210	1.742	30.21940	977.91907	-152.94473	161.03331	936.64783	55.69817	162.53325	971.26569	-118.16315	-111.24776	931.39447	61.28595	-108.87322	951.11957	-129.35219	30.10399	1137.14063	-148.92340	32.41912	1279.55554	-152.62915	40.55687	1407.08435	-119.69923	-54.28468	1044.44897	-138.15189	130.71904	1353.15295	-137.87065	53.54827	1214.98987	112.27503	-5.19326	1285.69214	96.73009	126.43127	1325.51831	78.56953	-73.94767	1331.75464	65.60332	164.67120	1426.61389	-21.51772	359.18536	1381.44275	-14.87865	476.94876	1362.25732	-85.08176	587.44385	1369.00330	2.14043	707.54358	1375.38794	-17.66020	770.01929	1340.38220	-62.36637	735.87061	1353.19104	49.49537	761.81946	1381.02148	-6.24909	-113.22092	1426.87512	-43.57855	-298.44962	1378.88257	0.14153	-408.15192	1372.46460	-109.45969	-533.34515	1385.87927	-1.42896	-656.61932	1412.40356	-43.69157	-718.97223	1372.67407	-88.12280	-679.98669	1374.75830	29.02343	-719.07446	1407.95020	-30.07335	169.41310	681.67883	60.03046	191.76924	487.95535	-17.58787	202.65381	375.36951	-141.04230	202.67712	167.42496	-84.22990	151.79678	45.94600	-173.06638	212.30745	64.25711	4.58952	154.64497	57.63917	99.41533	-129.53519	672.06433	50.92826	-160.84683	511.92429	-26.03178	-190.29123	376.50259	-130.89941	-182.63301	165.65707	-98.85563	-123.00806	47.59255	-170.77957	-206.02429	65.35537	5.53020	-150.49771	65.00893	100.73482	29.26192	1691.91187	-39.91910	87.85379	1627.48547	56.67602	120.90203	1547.54004	-71.76116	-50.14056	1625.35242	34.64667	-37.12473	1545.01050	-103.26974	
211	1.750	30.21940	977.91907	-152.94473	160.92186	936.67389	55.53366	162.53325	971.26569	-118.16315	-111.33021	931.33759	61.15305	-108.74802	951.24255	-129.29964	30.10399	1137.14063	-148.92340	32.61184	1279.51392	-152.41473	40.61258	1407.09412	-119.43684	-54.29508	1044.57471	-138.08646	130.76802	1353.31323	-137.88464	53.54827	1214.98987	112.27503	-5.20323	1285.63367	96.75879	126.65439	1325.51282	78.63436	-73.94767	1331.75464	65.60332	164.72105	1426.63318	-21.45302	359.23157	1381.30957	-14.68258	476.83688	1362.18872	-85.04125	587.37177	1368.91028	2.23308	707.58484	1375.32739	-17.43794	770.16888	1340.24683	-62.17493	735.90216	1353.12439	49.42758	761.87177	1381.20032	-6.11323	-113.22964	1426.73132	-43.76315	-298.58618	1378.82605	0.11638	-407.88843	1372.34399	-109.50230	-533.34515	1385.87927	-1.42896	-656.64679	1412.32764	-43.88953	-718.95978	1372.73425	-88.16969	-680.05188	1374.75464	29.11872	-718.99524	1407.93298	-30.23382	169.41145	681.57281	59.92871	191.76509	487.99731	-17.35371	202.65381	375.36951	-141.04230	202.67712	167.42496	-84.22990	151.89554	46.19519	-173.09726	212.30745	64.25711	4.58952	154.68625	57.72501	99.29618	-129.60114	672.13123	50.98489	-160.90256	511.98538	-25.92856	-190.07042	376.54825	-130.80643	-182.66771	165.59201	-98.76201	-122.94687	47.49068	-170.79173	-205.95834	65.32327	5.52892	-150.51555	65.12781	100.63303	29.25079	1691.88684	-39.93378	87.91368	1627.45691	56.75270	120.97762	1547.61218	-71.69475	-50.13808	1625.22876	34.65428	-36.95843	1544.61829	-102.46023	
